<svg viewBox="4 0 37 90" width="100" height="100" class="SvgComponentsstyles__StyledGrow-sc-19xc2xd-35 bXdOKH"><g id="growth" transform="translate(-127.3)"><path id="Caminho_9" d="M153.02 44.3c4.39-4.39 11.6-7.64 15.85-6.37 1.27 4.25-1.84 11.46-6.37 15.85-4.39 4.39-8.77 4.81-13.16 3.54-1.13-4.1-.71-8.49 3.68-13.02z" style="fill: rgb(35, 155, 2);"></path><path id="Caminho_10" d="M149.48 57.46c-1.27-4.39-.85-8.77 3.54-13.16s11.61-7.64 15.85-6.37" style="fill: rgb(52, 181, 21);"></path><path id="Caminho_11" d="M145.94 44.3c-4.39-4.39-11.6-7.64-15.85-6.37-1.27 4.25 1.84 11.46 6.37 15.85 4.39 4.39 8.77 4.81 13.16 3.54 1.14-4.1.71-8.49-3.68-13.02z" style="fill: rgb(35, 155, 2);"></path><path id="Caminho_12" d="M149.48 57.46c1.27-4.39.85-8.77-3.54-13.16s-11.6-7.64-15.85-6.37" style="fill: rgb(52, 181, 21);"></path><path id="Retângulo_19" d="M148.07 36.09h2.83v25.48h-2.83z" style="fill: rgb(104, 49, 0);"></path><path id="Caminho_13" d="M129.81 60.15c-.15.94-.2 1.88-.14 2.83 0 13.02 8.92 23.35 19.81 23.35S169.3 76 169.3 62.98c0-1.13-.14-2.97-.14-2.97h-39.34v.14z" fill="#894400"></path><path id="Caminho_14" d="M149.48 86.62c10.9 0 19.81-10.47 19.81-23.35.04-1-.06-2-.28-2.97h-23.78" style="fill: rgb(104, 49, 0);"></path><path id="Retângulo_20" fill="#c67812" d="M128.25 55.91h42.46v5.66h-42.46z"></path><path id="Retângulo_21" d="M136.74 82.8h25.48v5.66h-25.48z" style="fill: rgb(104, 49, 0);"></path><path id="Caminho_19" d="M149.48.99c10.24 0 18.54 8.3 18.54 18.54s-8.3 18.54-18.54 18.54c-10.24 0-18.54-8.3-18.54-18.54S139.24.99 149.48.99z" fill="#41c262"></path><path id="Caminho_15" d="M136.32 6.37c7.3-7.24 19.08-7.2 26.32.09 7.21 7.26 7.21 18.97 0 26.23" fill="#008c61"></path><path id="Caminho_16" d="M148.07 34.68v-3.96c-2.22-.01-4.4-.54-6.37-1.56l.99-4.1c1.77 1 3.77 1.53 5.8 1.56 1.98 0 3.4-.85 3.4-2.26s-1.13-2.26-3.82-3.11c-3.82-1.27-6.23-3.11-6.23-6.51 0-3.11 1.98-5.66 6.23-6.37v-3.4h2.83v3.11c1.85-.02 3.69.37 5.38 1.13l-.99 3.96a11.32 11.32 0 00-5.1-1.27c-2.26 0-3.11.99-3.11 1.98 0 1.13 1.27 1.98 4.25 3.11 4.25 1.56 5.8 3.4 5.8 6.65 0 3.11-2.12 5.94-6.37 6.65v4.25h-2.69v.14z" fill="#fff6e1"></path><g id="Grupo_13" transform="translate(148.529 3.998)"><path id="Caminho_17" d="M.95.96v7.22h.71c1.78 0 3.53.44 5.1 1.27l.85-3.96a9.68 9.68 0 00-5.24-1.42V.96H.95z" style="fill: rgb(255, 238, 189);"></path><path id="Caminho_18" d="M2.93 13.13c-.68-.23-1.34-.51-1.98-.85v5.38c1.41.71 2.55 1.56 2.55 2.55 0 1.13-.99 1.98-2.55 2.12v8.35h1.41v-4.25c4.25-.71 6.37-3.4 6.37-6.65.01-3.11-1.55-5.09-5.8-6.65z" style="fill: rgb(255, 238, 189);"></path></g></g></svg>