<svg id="visual" viewBox="0 0 675 900" width="675" height="900" xmlns="http://www.w3.org/2000/svg" xmlns:xlink="http://www.w3.org/1999/xlink" version="1.1"><rect x="0" y="0" width="675" height="900" fill="#fafafa"></rect><defs><linearGradient id="grad1_0" x1="0%" y1="100%" x2="100%" y2="0%"><stop offset="30%" stop-color="#d2ddff" stop-opacity="1"></stop><stop offset="70%" stop-color="#d2ddff" stop-opacity="1"></stop></linearGradient></defs><defs><linearGradient id="grad1_1" x1="0%" y1="100%" x2="100%" y2="0%"><stop offset="30%" stop-color="#d2ddff" stop-opacity="1"></stop><stop offset="70%" stop-color="#dae3fe" stop-opacity="1"></stop></linearGradient></defs><defs><linearGradient id="grad1_2" x1="0%" y1="100%" x2="100%" y2="0%"><stop offset="30%" stop-color="#e2e8fd" stop-opacity="1"></stop><stop offset="70%" stop-color="#dae3fe" stop-opacity="1"></stop></linearGradient></defs><defs><linearGradient id="grad1_3" x1="0%" y1="100%" x2="100%" y2="0%"><stop offset="30%" stop-color="#e2e8fd" stop-opacity="1"></stop><stop offset="70%" stop-color="#eaeefc" stop-opacity="1"></stop></linearGradient></defs><defs><linearGradient id="grad1_4" x1="0%" y1="100%" x2="100%" y2="0%"><stop offset="30%" stop-color="#f2f4fb" stop-opacity="1"></stop><stop offset="70%" stop-color="#eaeefc" stop-opacity="1"></stop></linearGradient></defs><defs><linearGradient id="grad1_5" x1="0%" y1="100%" x2="100%" y2="0%"><stop offset="30%" stop-color="#f2f4fb" stop-opacity="1"></stop><stop offset="70%" stop-color="#fafafa" stop-opacity="1"></stop></linearGradient></defs><defs><linearGradient id="grad2_0" x1="0%" y1="100%" x2="100%" y2="0%"><stop offset="30%" stop-color="#d2ddff" stop-opacity="1"></stop><stop offset="70%" stop-color="#d2ddff" stop-opacity="1"></stop></linearGradient></defs><defs><linearGradient id="grad2_1" x1="0%" y1="100%" x2="100%" y2="0%"><stop offset="30%" stop-color="#dae3fe" stop-opacity="1"></stop><stop offset="70%" stop-color="#d2ddff" stop-opacity="1"></stop></linearGradient></defs><defs><linearGradient id="grad2_2" x1="0%" y1="100%" x2="100%" y2="0%"><stop offset="30%" stop-color="#dae3fe" stop-opacity="1"></stop><stop offset="70%" stop-color="#e2e8fd" stop-opacity="1"></stop></linearGradient></defs><defs><linearGradient id="grad2_3" x1="0%" y1="100%" x2="100%" y2="0%"><stop offset="30%" stop-color="#eaeefc" stop-opacity="1"></stop><stop offset="70%" stop-color="#e2e8fd" stop-opacity="1"></stop></linearGradient></defs><defs><linearGradient id="grad2_4" x1="0%" y1="100%" x2="100%" y2="0%"><stop offset="30%" stop-color="#eaeefc" stop-opacity="1"></stop><stop offset="70%" stop-color="#f2f4fb" stop-opacity="1"></stop></linearGradient></defs><defs><linearGradient id="grad2_5" x1="0%" y1="100%" x2="100%" y2="0%"><stop offset="30%" stop-color="#fafafa" stop-opacity="1"></stop><stop offset="70%" stop-color="#f2f4fb" stop-opacity="1"></stop></linearGradient></defs><g transform="translate(675, 900)"><path d="M-330 0C-340.5 -19.2 -350.9 -38.4 -365.4 -64.4C-379.8 -90.4 -398.2 -123.3 -385.3 -140.2C-372.4 -157.2 -328.2 -158.2 -320.4 -185C-312.6 -211.8 -341.2 -264.5 -318.7 -267.4C-296.1 -270.3 -222.4 -223.6 -203.1 -242.1C-183.9 -260.5 -219.1 -344.2 -210.9 -365.4C-202.8 -386.6 -151.4 -345.3 -119 -327C-86.7 -308.7 -73.4 -313.4 -56.8 -322C-40.1 -330.7 -20.1 -343.3 0 -356L0 0Z" fill="#f6f7fb"></path><path d="M-275 0C-283.7 -16 -292.4 -32 -304.5 -53.7C-316.5 -75.4 -331.8 -102.7 -321.1 -116.9C-310.3 -131 -273.5 -131.8 -267 -154.2C-260.5 -176.5 -284.4 -220.4 -265.6 -222.8C-246.8 -225.3 -185.3 -186.3 -169.3 -201.7C-153.2 -217.1 -182.6 -286.8 -175.8 -304.5C-169 -322.1 -126.1 -287.8 -99.2 -272.5C-72.2 -257.3 -61.2 -261.1 -47.3 -268.4C-33.4 -275.6 -16.7 -286.1 0 -296.7L0 0Z" fill="#eef1fc"></path><path d="M-220 0C-227 -12.8 -234 -25.6 -243.6 -42.9C-253.2 -60.3 -265.4 -82.2 -256.8 -93.5C-248.3 -104.8 -218.8 -105.5 -213.6 -123.3C-208.4 -141.2 -227.5 -176.3 -212.4 -178.3C-197.4 -180.2 -148.3 -149.1 -135.4 -161.4C-122.6 -173.7 -146 -229.4 -140.6 -243.6C-135.2 -257.7 -100.9 -230.2 -79.3 -218C-57.8 -205.8 -49 -208.9 -37.9 -214.7C-26.8 -220.5 -13.4 -228.9 0 -237.3L0 0Z" fill="#e6ebfd"></path><path d="M-165 0C-170.2 -9.6 -175.5 -19.2 -182.7 -32.2C-189.9 -45.2 -199.1 -61.6 -192.6 -70.1C-186.2 -78.6 -164.1 -79.1 -160.2 -92.5C-156.3 -105.9 -170.6 -132.2 -159.3 -133.7C-148.1 -135.2 -111.2 -111.8 -101.6 -121C-91.9 -130.3 -109.5 -172.1 -105.5 -182.7C-101.4 -193.3 -75.7 -172.7 -59.5 -163.5C-43.3 -154.4 -36.7 -156.7 -28.4 -161C-20.1 -165.3 -10 -171.7 0 -178L0 0Z" fill="#dee6fe"></path><path d="M-110 0C-113.5 -6.4 -117 -12.8 -121.8 -21.5C-126.6 -30.1 -132.7 -41.1 -128.4 -46.7C-124.1 -52.4 -109.4 -52.7 -106.8 -61.7C-104.2 -70.6 -113.7 -88.2 -106.2 -89.1C-98.7 -90.1 -74.1 -74.5 -67.7 -80.7C-61.3 -86.8 -73 -114.7 -70.3 -121.8C-67.6 -128.9 -50.5 -115.1 -39.7 -109C-28.9 -102.9 -24.5 -104.5 -18.9 -107.3C-13.4 -110.2 -6.7 -114.4 0 -118.7L0 0Z" fill="#d6e0ff"></path><path d="M-55 0C-56.7 -3.2 -58.5 -6.4 -60.9 -10.7C-63.3 -15.1 -66.4 -20.5 -64.2 -23.4C-62.1 -26.2 -54.7 -26.4 -53.4 -30.8C-52.1 -35.3 -56.9 -44.1 -53.1 -44.6C-49.4 -45.1 -37.1 -37.3 -33.9 -40.3C-30.6 -43.4 -36.5 -57.4 -35.2 -60.9C-33.8 -64.4 -25.2 -57.6 -19.8 -54.5C-14.4 -51.5 -12.2 -52.2 -9.5 -53.7C-6.7 -55.1 -3.3 -57.2 0 -59.3L0 0Z" fill="#d2ddff"></path></g><g transform="translate(0, 0)"><path d="M361 0C383.5 24.3 405.9 48.6 408.7 72.1C411.5 95.5 394.6 118 377.8 137.5C360.9 157 344.1 173.5 328.2 189.5C312.4 205.5 297.6 221.2 286.5 240.4C275.4 259.6 268.2 282.5 257.8 307.2C247.4 331.9 233.8 358.6 210.9 365.4C188 372.1 155.8 359.1 131 359.9C106.2 360.7 88.8 375.4 68.2 387C47.7 398.7 23.8 407.3 0 416L0 0Z" fill="#f6f7fb"></path><path d="M300.8 0C319.5 20.3 338.3 40.5 340.6 60.1C342.9 79.6 328.8 98.3 314.8 114.6C300.7 130.8 286.7 144.5 273.5 157.9C260.3 171.3 248 184.3 238.8 200.3C229.5 216.4 223.5 235.4 214.8 256C206.1 276.6 194.9 298.8 175.8 304.5C156.7 310.1 129.8 299.2 109.2 299.9C88.5 300.6 74 312.8 56.9 322.5C39.7 332.2 19.9 339.5 0 346.7L0 0Z" fill="#eef1fc"></path><path d="M240.7 0C255.6 16.2 270.6 32.4 272.5 48C274.3 63.7 263.1 78.7 251.8 91.7C240.6 104.7 229.4 115.6 218.8 126.3C208.3 137 198.4 147.5 191 160.3C183.6 173.1 178.8 188.3 171.8 204.8C164.9 221.3 155.9 239 140.6 243.6C125.4 248.1 103.9 239.4 87.3 239.9C70.8 240.5 59.2 250.2 45.5 258C31.8 265.8 15.9 271.6 0 277.3L0 0Z" fill="#e6ebfd"></path><path d="M180.5 0C191.7 12.2 203 24.3 204.3 36C205.7 47.7 197.3 59 188.9 68.7C180.4 78.5 172 86.7 164.1 94.7C156.2 102.8 148.8 110.6 143.3 120.2C137.7 129.8 134.1 141.2 128.9 153.6C123.7 166 116.9 179.3 105.5 182.7C94 186.1 77.9 179.5 65.5 180C53.1 180.4 44.4 187.7 34.1 193.5C23.8 199.3 11.9 203.7 0 208L0 0Z" fill="#dee6fe"></path><path d="M120.3 0C127.8 8.1 135.3 16.2 136.2 24C137.2 31.8 131.5 39.3 125.9 45.8C120.3 52.3 114.7 57.8 109.4 63.2C104.1 68.5 99.2 73.7 95.5 80.1C91.8 86.5 89.4 94.2 85.9 102.4C82.5 110.6 77.9 119.5 70.3 121.8C62.7 124 51.9 119.7 43.7 120C35.4 120.2 29.6 125.1 22.7 129C15.9 132.9 7.9 135.8 0 138.7L0 0Z" fill="#d6e0ff"></path><path d="M60.2 0C63.9 4.1 67.7 8.1 68.1 12C68.6 15.9 65.8 19.7 63 22.9C60.1 26.2 57.3 28.9 54.7 31.6C52.1 34.3 49.6 36.9 47.8 40.1C45.9 43.3 44.7 47.1 43 51.2C41.2 55.3 39 59.8 35.2 60.9C31.3 62 26 59.8 21.8 60C17.7 60.1 14.8 62.6 11.4 64.5C7.9 66.4 4 67.9 0 69.3L0 0Z" fill="#d2ddff"></path></g></svg>