<svg id="visual" viewBox="0 0 900 675" width="900" height="675" xmlns="http://www.w3.org/2000/svg" xmlns:xlink="http://www.w3.org/1999/xlink" version="1.1"><rect x="0" y="0" width="900" height="675" fill="#ffffff"></rect><defs><linearGradient id="grad1_0" x1="25%" y1="100%" x2="100%" y2="0%"><stop offset="23.333333333333336%" stop-color="#b1bad4" stop-opacity="1"></stop><stop offset="76.66666666666666%" stop-color="#b1bad4" stop-opacity="1"></stop></linearGradient></defs><defs><linearGradient id="grad1_1" x1="25%" y1="100%" x2="100%" y2="0%"><stop offset="23.333333333333336%" stop-color="#b1bad4" stop-opacity="1"></stop><stop offset="76.66666666666666%" stop-color="#c0c7dd" stop-opacity="1"></stop></linearGradient></defs><defs><linearGradient id="grad1_2" x1="25%" y1="100%" x2="100%" y2="0%"><stop offset="23.333333333333336%" stop-color="#d0d5e5" stop-opacity="1"></stop><stop offset="76.66666666666666%" stop-color="#c0c7dd" stop-opacity="1"></stop></linearGradient></defs><defs><linearGradient id="grad1_3" x1="25%" y1="100%" x2="100%" y2="0%"><stop offset="23.333333333333336%" stop-color="#d0d5e5" stop-opacity="1"></stop><stop offset="76.66666666666666%" stop-color="#e0e3ee" stop-opacity="1"></stop></linearGradient></defs><defs><linearGradient id="grad1_4" x1="25%" y1="100%" x2="100%" y2="0%"><stop offset="23.333333333333336%" stop-color="#eff1f6" stop-opacity="1"></stop><stop offset="76.66666666666666%" stop-color="#e0e3ee" stop-opacity="1"></stop></linearGradient></defs><defs><linearGradient id="grad1_5" x1="25%" y1="100%" x2="100%" y2="0%"><stop offset="23.333333333333336%" stop-color="#eff1f6" stop-opacity="1"></stop><stop offset="76.66666666666666%" stop-color="#ffffff" stop-opacity="1"></stop></linearGradient></defs><defs><linearGradient id="grad2_0" x1="0%" y1="100%" x2="75%" y2="0%"><stop offset="23.333333333333336%" stop-color="#b1bad4" stop-opacity="1"></stop><stop offset="76.66666666666666%" stop-color="#b1bad4" stop-opacity="1"></stop></linearGradient></defs><defs><linearGradient id="grad2_1" x1="0%" y1="100%" x2="75%" y2="0%"><stop offset="23.333333333333336%" stop-color="#c0c7dd" stop-opacity="1"></stop><stop offset="76.66666666666666%" stop-color="#b1bad4" stop-opacity="1"></stop></linearGradient></defs><defs><linearGradient id="grad2_2" x1="0%" y1="100%" x2="75%" y2="0%"><stop offset="23.333333333333336%" stop-color="#c0c7dd" stop-opacity="1"></stop><stop offset="76.66666666666666%" stop-color="#d0d5e5" stop-opacity="1"></stop></linearGradient></defs><defs><linearGradient id="grad2_3" x1="0%" y1="100%" x2="75%" y2="0%"><stop offset="23.333333333333336%" stop-color="#e0e3ee" stop-opacity="1"></stop><stop offset="76.66666666666666%" stop-color="#d0d5e5" stop-opacity="1"></stop></linearGradient></defs><defs><linearGradient id="grad2_4" x1="0%" y1="100%" x2="75%" y2="0%"><stop offset="23.333333333333336%" stop-color="#e0e3ee" stop-opacity="1"></stop><stop offset="76.66666666666666%" stop-color="#eff1f6" stop-opacity="1"></stop></linearGradient></defs><defs><linearGradient id="grad2_5" x1="0%" y1="100%" x2="75%" y2="0%"><stop offset="23.333333333333336%" stop-color="#ffffff" stop-opacity="1"></stop><stop offset="76.66666666666666%" stop-color="#eff1f6" stop-opacity="1"></stop></linearGradient></defs><g transform="translate(900, 675)"><path d="M-342 0C-361.7 -23.5 -381.4 -47 -378.2 -66.7C-374.9 -86.4 -348.6 -102.4 -338.3 -123.1C-328 -143.9 -333.6 -169.4 -321.3 -185.5C-309 -201.6 -278.6 -208.1 -255.1 -214C-231.6 -220 -214.9 -225.4 -205.7 -245.1C-196.5 -264.9 -194.7 -299 -179.5 -310.9C-164.3 -322.8 -135.7 -312.3 -114.6 -314.8C-93.5 -317.2 -80 -332.6 -62.2 -352.6C-44.3 -372.6 -22.2 -397.2 0 -421.9L0 0Z" fill="#f7f8fb"></path><path d="M-285 0C-301.4 -19.6 -317.9 -39.1 -315.1 -55.6C-312.4 -72 -290.5 -85.3 -281.9 -102.6C-273.3 -119.9 -278 -141.2 -267.7 -154.6C-257.5 -168 -232.2 -173.4 -212.6 -178.4C-193 -183.3 -179.1 -187.8 -171.4 -204.3C-163.7 -220.7 -162.3 -249.2 -149.6 -259.1C-136.9 -269 -113 -260.3 -95.5 -262.3C-77.9 -264.4 -66.7 -277.1 -51.8 -293.8C-36.9 -310.5 -18.5 -331 0 -351.6L0 0Z" fill="#e7eaf2"></path><path d="M-228 0C-241.1 -15.7 -254.3 -31.3 -252.1 -44.5C-249.9 -57.6 -232.4 -68.2 -225.5 -82.1C-218.7 -95.9 -222.4 -113 -214.2 -123.7C-206 -134.4 -185.7 -138.7 -170.1 -142.7C-154.4 -146.7 -143.3 -150.3 -137.1 -163.4C-131 -176.6 -129.8 -199.4 -119.7 -207.3C-109.5 -215.2 -90.4 -208.2 -76.4 -209.9C-62.3 -211.5 -53.3 -221.7 -41.4 -235C-29.6 -248.4 -14.8 -264.8 0 -281.2L0 0Z" fill="#d8dce9"></path><path d="M-171 0C-180.9 -11.7 -190.7 -23.5 -189.1 -33.3C-187.4 -43.2 -174.3 -51.2 -169.1 -61.6C-164 -71.9 -166.8 -84.7 -160.6 -92.8C-154.5 -100.8 -139.3 -104 -127.5 -107C-115.8 -110 -107.5 -112.7 -102.8 -122.6C-98.2 -132.4 -97.4 -149.5 -89.8 -155.5C-82.1 -161.4 -67.8 -156.2 -57.3 -157.4C-46.8 -158.6 -40 -166.3 -31.1 -176.3C-22.2 -186.3 -11.1 -198.6 0 -210.9L0 0Z" fill="#c8cee1"></path><path d="M-114 0C-120.6 -7.8 -127.1 -15.7 -126.1 -22.2C-125 -28.8 -116.2 -34.1 -112.8 -41C-109.3 -48 -111.2 -56.5 -107.1 -61.8C-103 -67.2 -92.9 -69.4 -85 -71.3C-77.2 -73.3 -71.6 -75.1 -68.6 -81.7C-65.5 -88.3 -64.9 -99.7 -59.8 -103.6C-54.8 -107.6 -45.2 -104.1 -38.2 -104.9C-31.2 -105.7 -26.7 -110.9 -20.7 -117.5C-14.8 -124.2 -7.4 -132.4 0 -140.6L0 0Z" fill="#b9c1d8"></path><path d="M-57 0C-60.3 -3.9 -63.6 -7.8 -63 -11.1C-62.5 -14.4 -58.1 -17.1 -56.4 -20.5C-54.7 -24 -55.6 -28.2 -53.5 -30.9C-51.5 -33.6 -46.4 -34.7 -42.5 -35.7C-38.6 -36.7 -35.8 -37.6 -34.3 -40.9C-32.7 -44.1 -32.5 -49.8 -29.9 -51.8C-27.4 -53.8 -22.6 -52.1 -19.1 -52.5C-15.6 -52.9 -13.3 -55.4 -10.4 -58.8C-7.4 -62.1 -3.7 -66.2 0 -70.3L0 0Z" fill="#b1bad4"></path></g><g transform="translate(0, 0)"><path d="M345 0C379.2 27.1 413.4 54.2 400.8 70.7C388.2 87.1 328.7 92.9 320.4 116.6C312.1 140.4 355 182 357.7 206.5C360.4 231 323 238.2 302.6 253.9C282.2 269.6 278.8 293.7 268.7 320.2C258.5 346.7 241.6 375.7 210.9 365.4C180.3 355 136 305.3 111.8 307.3C87.7 309.2 83.7 362.8 68.4 388C53.1 413.2 26.6 410.1 0 407L0 0Z" fill="#f7f8fb"></path><path d="M287.5 0C316 22.6 344.5 45.2 334 58.9C323.5 72.6 274 77.4 267 97.2C260.1 117 295.8 151.7 298.1 172.1C300.3 192.5 269.1 198.5 252.2 211.6C235.2 224.6 232.4 244.7 223.9 266.8C215.4 288.9 201.3 313.1 175.8 304.5C150.3 295.8 113.3 254.4 93.2 256.1C73.1 257.7 69.7 302.3 57 323.3C44.3 344.4 22.1 341.8 0 339.2L0 0Z" fill="#e7eaf2"></path><path d="M230 0C252.8 18.1 275.6 36.2 267.2 47.1C258.8 58.1 219.2 61.9 213.6 77.8C208.1 93.6 236.6 121.4 238.4 137.7C240.3 154 215.3 158.8 201.7 169.3C188.1 179.7 185.9 195.8 179.1 213.5C172.4 231.2 161 250.5 140.6 243.6C120.2 236.7 90.7 203.6 74.6 204.9C58.5 206.2 55.8 241.9 45.6 258.7C35.4 275.5 17.7 273.4 0 271.3L0 0Z" fill="#d8dce9"></path><path d="M172.5 0C189.6 13.6 206.7 27.1 200.4 35.3C194.1 43.6 164.4 46.5 160.2 58.3C156.1 70.2 177.5 91 178.8 103.2C180.2 115.5 161.5 119.1 151.3 127C141.1 134.8 139.4 146.8 134.3 160.1C129.3 173.4 120.8 187.9 105.5 182.7C90.2 177.5 68 152.7 55.9 153.6C43.8 154.6 41.8 181.4 34.2 194C26.6 206.6 13.3 205.1 0 203.5L0 0Z" fill="#c8cee1"></path><path d="M115 0C126.4 9 137.8 18.1 133.6 23.6C129.4 29 109.6 31 106.8 38.9C104 46.8 118.3 60.7 119.2 68.8C120.1 77 107.7 79.4 100.9 84.6C94.1 89.9 92.9 97.9 89.6 106.7C86.2 115.6 80.5 125.2 70.3 121.8C60.1 118.3 45.3 101.8 37.3 102.4C29.2 103.1 27.9 120.9 22.8 129.3C17.7 137.7 8.9 136.7 0 135.7L0 0Z" fill="#b9c1d8"></path><path d="M57.5 0C63.2 4.5 68.9 9 66.8 11.8C64.7 14.5 54.8 15.5 53.4 19.4C52 23.4 59.2 30.3 59.6 34.4C60.1 38.5 53.8 39.7 50.4 42.3C47 44.9 46.5 48.9 44.8 53.4C43.1 57.8 40.3 62.6 35.2 60.9C30.1 59.2 22.7 50.9 18.6 51.2C14.6 51.5 13.9 60.5 11.4 64.7C8.9 68.9 4.4 68.4 0 67.8L0 0Z" fill="#b1bad4"></path></g></svg>