<svg id="visual" viewBox="0 0 900 675" width="900" height="675" xmlns="http://www.w3.org/2000/svg" xmlns:xlink="http://www.w3.org/1999/xlink" version="1.1"><rect x="0" y="0" width="900" height="675" fill="#ffffff"></rect><defs><linearGradient id="grad1_0" x1="25%" y1="0%" x2="100%" y2="100%"><stop offset="23.333333333333336%" stop-color="#b1bad4" stop-opacity="1"></stop><stop offset="76.66666666666666%" stop-color="#b1bad4" stop-opacity="1"></stop></linearGradient></defs><defs><linearGradient id="grad1_1" x1="25%" y1="0%" x2="100%" y2="100%"><stop offset="23.333333333333336%" stop-color="#b1bad4" stop-opacity="1"></stop><stop offset="76.66666666666666%" stop-color="#c0c7dd" stop-opacity="1"></stop></linearGradient></defs><defs><linearGradient id="grad1_2" x1="25%" y1="0%" x2="100%" y2="100%"><stop offset="23.333333333333336%" stop-color="#d0d5e5" stop-opacity="1"></stop><stop offset="76.66666666666666%" stop-color="#c0c7dd" stop-opacity="1"></stop></linearGradient></defs><defs><linearGradient id="grad1_3" x1="25%" y1="0%" x2="100%" y2="100%"><stop offset="23.333333333333336%" stop-color="#d0d5e5" stop-opacity="1"></stop><stop offset="76.66666666666666%" stop-color="#e0e3ee" stop-opacity="1"></stop></linearGradient></defs><defs><linearGradient id="grad1_4" x1="25%" y1="0%" x2="100%" y2="100%"><stop offset="23.333333333333336%" stop-color="#eff1f6" stop-opacity="1"></stop><stop offset="76.66666666666666%" stop-color="#e0e3ee" stop-opacity="1"></stop></linearGradient></defs><defs><linearGradient id="grad1_5" x1="25%" y1="0%" x2="100%" y2="100%"><stop offset="23.333333333333336%" stop-color="#eff1f6" stop-opacity="1"></stop><stop offset="76.66666666666666%" stop-color="#ffffff" stop-opacity="1"></stop></linearGradient></defs><defs><linearGradient id="grad2_0" x1="0%" y1="0%" x2="75%" y2="100%"><stop offset="23.333333333333336%" stop-color="#b1bad4" stop-opacity="1"></stop><stop offset="76.66666666666666%" stop-color="#b1bad4" stop-opacity="1"></stop></linearGradient></defs><defs><linearGradient id="grad2_1" x1="0%" y1="0%" x2="75%" y2="100%"><stop offset="23.333333333333336%" stop-color="#c0c7dd" stop-opacity="1"></stop><stop offset="76.66666666666666%" stop-color="#b1bad4" stop-opacity="1"></stop></linearGradient></defs><defs><linearGradient id="grad2_2" x1="0%" y1="0%" x2="75%" y2="100%"><stop offset="23.333333333333336%" stop-color="#c0c7dd" stop-opacity="1"></stop><stop offset="76.66666666666666%" stop-color="#d0d5e5" stop-opacity="1"></stop></linearGradient></defs><defs><linearGradient id="grad2_3" x1="0%" y1="0%" x2="75%" y2="100%"><stop offset="23.333333333333336%" stop-color="#e0e3ee" stop-opacity="1"></stop><stop offset="76.66666666666666%" stop-color="#d0d5e5" stop-opacity="1"></stop></linearGradient></defs><defs><linearGradient id="grad2_4" x1="0%" y1="0%" x2="75%" y2="100%"><stop offset="23.333333333333336%" stop-color="#e0e3ee" stop-opacity="1"></stop><stop offset="76.66666666666666%" stop-color="#eff1f6" stop-opacity="1"></stop></linearGradient></defs><defs><linearGradient id="grad2_5" x1="0%" y1="0%" x2="75%" y2="100%"><stop offset="23.333333333333336%" stop-color="#ffffff" stop-opacity="1"></stop><stop offset="76.66666666666666%" stop-color="#eff1f6" stop-opacity="1"></stop></linearGradient></defs><g transform="translate(900, 0)"><path d="M0 342C-23.5 361.7 -47 381.4 -66.7 378.2C-86.4 374.9 -102.4 348.6 -123.1 338.3C-143.9 328 -169.4 333.6 -185.5 321.3C-201.6 309 -208.1 278.6 -214 255.1C-220 231.6 -225.4 214.9 -245.1 205.7C-264.9 196.5 -299 194.7 -310.9 179.5C-322.8 164.3 -312.3 135.7 -314.8 114.6C-317.2 93.5 -332.6 80 -352.6 62.2C-372.6 44.3 -397.2 22.2 -421.9 0L0 0Z" fill="#f7f8fb"></path><path d="M0 285C-19.6 301.4 -39.1 317.9 -55.6 315.1C-72 312.4 -85.3 290.5 -102.6 281.9C-119.9 273.3 -141.2 278 -154.6 267.7C-168 257.5 -173.4 232.2 -178.4 212.6C-183.3 193 -187.8 179.1 -204.3 171.4C-220.7 163.7 -249.2 162.3 -259.1 149.6C-269 136.9 -260.3 113 -262.3 95.5C-264.4 77.9 -277.1 66.7 -293.8 51.8C-310.5 36.9 -331 18.5 -351.6 0L0 0Z" fill="#e7eaf2"></path><path d="M0 228C-15.7 241.1 -31.3 254.3 -44.5 252.1C-57.6 249.9 -68.2 232.4 -82.1 225.5C-95.9 218.7 -113 222.4 -123.7 214.2C-134.4 206 -138.7 185.7 -142.7 170.1C-146.7 154.4 -150.3 143.3 -163.4 137.1C-176.6 131 -199.4 129.8 -207.3 119.7C-215.2 109.5 -208.2 90.4 -209.9 76.4C-211.5 62.3 -221.7 53.3 -235 41.4C-248.4 29.6 -264.8 14.8 -281.2 0L0 0Z" fill="#d8dce9"></path><path d="M0 171C-11.7 180.9 -23.5 190.7 -33.3 189.1C-43.2 187.4 -51.2 174.3 -61.6 169.1C-71.9 164 -84.7 166.8 -92.7 160.6C-100.8 154.5 -104 139.3 -107 127.5C-110 115.8 -112.7 107.5 -122.6 102.8C-132.4 98.2 -149.5 97.4 -155.5 89.8C-161.4 82.1 -156.2 67.8 -157.4 57.3C-158.6 46.8 -166.3 40 -176.3 31.1C-186.3 22.2 -198.6 11.1 -210.9 0L0 0Z" fill="#c8cee1"></path><path d="M0 114C-7.8 120.6 -15.7 127.1 -22.2 126.1C-28.8 125 -34.1 116.2 -41 112.8C-48 109.3 -56.5 111.2 -61.8 107.1C-67.2 103 -69.4 92.9 -71.3 85C-73.3 77.2 -75.1 71.6 -81.7 68.6C-88.3 65.5 -99.7 64.9 -103.6 59.8C-107.6 54.8 -104.1 45.2 -104.9 38.2C-105.7 31.2 -110.9 26.7 -117.5 20.7C-124.2 14.8 -132.4 7.4 -140.6 0L0 0Z" fill="#b9c1d8"></path><path d="M0 57C-3.9 60.3 -7.8 63.6 -11.1 63C-14.4 62.5 -17.1 58.1 -20.5 56.4C-24 54.7 -28.2 55.6 -30.9 53.5C-33.6 51.5 -34.7 46.4 -35.7 42.5C-36.7 38.6 -37.6 35.8 -40.9 34.3C-44.1 32.7 -49.8 32.5 -51.8 29.9C-53.8 27.4 -52.1 22.6 -52.5 19.1C-52.9 15.6 -55.4 13.3 -58.8 10.4C-62.1 7.4 -66.2 3.7 -70.3 0L0 0Z" fill="#b1bad4"></path></g><g transform="translate(0, 675)"><path d="M0 -345C27.1 -379.2 54.2 -413.4 70.7 -400.8C87.1 -388.2 92.9 -328.7 116.6 -320.4C140.4 -312.1 182 -355 206.5 -357.7C231 -360.4 238.2 -323 253.9 -302.6C269.6 -282.2 293.7 -278.8 320.2 -268.7C346.7 -258.5 375.7 -241.6 365.4 -210.9C355 -180.3 305.3 -136 307.3 -111.8C309.2 -87.7 362.8 -83.7 388 -68.4C413.2 -53.1 410.1 -26.6 407 0L0 0Z" fill="#f7f8fb"></path><path d="M0 -287.5C22.6 -316 45.2 -344.5 58.9 -334C72.6 -323.5 77.4 -274 97.2 -267C117 -260.1 151.7 -295.8 172.1 -298.1C192.5 -300.3 198.5 -269.1 211.6 -252.2C224.6 -235.2 244.7 -232.4 266.8 -223.9C288.9 -215.4 313.1 -201.3 304.5 -175.8C295.8 -150.3 254.4 -113.3 256.1 -93.2C257.7 -73.1 302.3 -69.7 323.3 -57C344.4 -44.3 341.8 -22.1 339.2 0L0 0Z" fill="#e7eaf2"></path><path d="M0 -230C18.1 -252.8 36.2 -275.6 47.1 -267.2C58.1 -258.8 61.9 -219.2 77.8 -213.6C93.6 -208.1 121.4 -236.6 137.7 -238.4C154 -240.3 158.8 -215.3 169.3 -201.7C179.7 -188.1 195.8 -185.9 213.5 -179.1C231.2 -172.4 250.5 -161 243.6 -140.6C236.7 -120.2 203.6 -90.7 204.9 -74.6C206.2 -58.5 241.9 -55.8 258.7 -45.6C275.5 -35.4 273.4 -17.7 271.3 0L0 0Z" fill="#d8dce9"></path><path d="M0 -172.5C13.6 -189.6 27.1 -206.7 35.3 -200.4C43.6 -194.1 46.5 -164.4 58.3 -160.2C70.2 -156.1 91 -177.5 103.2 -178.8C115.5 -180.2 119.1 -161.5 127 -151.3C134.8 -141.1 146.8 -139.4 160.1 -134.3C173.4 -129.3 187.9 -120.8 182.7 -105.5C177.5 -90.2 152.7 -68 153.6 -55.9C154.6 -43.8 181.4 -41.8 194 -34.2C206.6 -26.6 205.1 -13.3 203.5 0L0 0Z" fill="#c8cee1"></path><path d="M0 -115C9 -126.4 18.1 -137.8 23.6 -133.6C29 -129.4 31 -109.6 38.9 -106.8C46.8 -104 60.7 -118.3 68.8 -119.2C77 -120.1 79.4 -107.7 84.6 -100.9C89.9 -94.1 97.9 -92.9 106.7 -89.6C115.6 -86.2 125.2 -80.5 121.8 -70.3C118.3 -60.1 101.8 -45.3 102.4 -37.3C103.1 -29.2 120.9 -27.9 129.3 -22.8C137.7 -17.7 136.7 -8.9 135.7 0L0 0Z" fill="#b9c1d8"></path><path d="M0 -57.5C4.5 -63.2 9 -68.9 11.8 -66.8C14.5 -64.7 15.5 -54.8 19.4 -53.4C23.4 -52 30.3 -59.2 34.4 -59.6C38.5 -60.1 39.7 -53.8 42.3 -50.4C44.9 -47 48.9 -46.5 53.4 -44.8C57.8 -43.1 62.6 -40.3 60.9 -35.2C59.2 -30.1 50.9 -22.7 51.2 -18.6C51.5 -14.6 60.5 -13.9 64.7 -11.4C68.9 -8.9 68.4 -4.4 67.8 0L0 0Z" fill="#b1bad4"></path></g></svg>