<svg id="visual" viewBox="0 0 900 450" width="900" height="450" xmlns="http://www.w3.org/2000/svg" xmlns:xlink="http://www.w3.org/1999/xlink" version="1.1"><path d="M0 51L75 48C150 45 300 39 450 31.5C600 24 750 15 825 10.5L900 6L900 0L825 0C750 0 600 0 450 0C300 0 150 0 75 0L0 0Z" fill="#6198ff"></path><path d="M0 82L75 76.8C150 71.7 300 61.3 450 90.7C600 120 750 189 825 223.5L900 258L900 4L825 8.5C750 13 600 22 450 29.5C300 37 150 43 75 46L0 49Z" fill="#548fff"></path><path d="M0 96L75 88.5C150 81 300 66 450 95.2C600 124.3 750 197.7 825 234.3L900 271L900 256L825 221.5C750 187 600 118 450 88.7C300 59.3 150 69.7 75 74.8L0 80Z" fill="#4686ff"></path><path d="M0 114L75 105.7C150 97.3 300 80.7 450 111.3C600 142 750 220 825 259L900 298L900 269L825 232.3C750 195.7 600 122.3 450 93.2C300 64 150 79 75 86.5L0 94Z" fill="#387dff"></path><path d="M0 208L75 193C150 178 300 148 450 163C600 178 750 238 825 268L900 298L900 296L825 257C750 218 600 140 450 109.3C300 78.7 150 95.3 75 103.7L0 112Z" fill="#2874ff"></path><path d="M0 294L75 283.5C150 273 300 252 450 258C600 264 750 297 825 313.5L900 330L900 296L825 266C750 236 600 176 450 161C300 146 150 176 75 191L0 206Z" fill="#126bff"></path><path d="M0 307L75 299.5C150 292 300 277 450 282.3C600 287.7 750 313.3 825 326.2L900 339L900 328L825 311.5C750 295 600 262 450 256C300 250 150 271 75 281.5L0 292Z" fill="#0064f9"></path><path d="M0 357L75 348C150 339 300 321 450 318.7C600 316.3 750 329.7 825 336.3L900 343L900 337L825 324.2C750 311.3 600 285.7 450 280.3C300 275 150 290 75 297.5L0 305Z" fill="#005fec"></path><path d="M0 388L75 378.3C150 368.7 300 349.3 450 346.3C600 343.3 750 356.7 825 363.3L900 370L900 341L825 334.3C750 327.7 600 314.3 450 316.7C300 319 150 337 75 346L0 355Z" fill="#005ae0"></path><path d="M0 393L75 387.7C150 382.3 300 371.7 450 371.7C600 371.7 750 382.3 825 387.7L900 393L900 368L825 361.3C750 354.7 600 341.3 450 344.3C300 347.3 150 366.7 75 376.3L0 386Z" fill="#0055d3"></path><path d="M0 438L75 429.7C150 421.3 300 404.7 450 406.2C600 407.7 750 427.3 825 437.2L900 447L900 391L825 385.7C750 380.3 600 369.7 450 369.7C300 369.7 150 380.3 75 385.7L0 391Z" fill="#0051c7"></path><path d="M0 451L75 451C150 451 300 451 450 451C600 451 750 451 825 451L900 451L900 445L825 435.2C750 425.3 600 405.7 450 404.2C300 402.7 150 419.3 75 427.7L0 436Z" fill="#004cbb"></path></svg>