<svg id="visual" viewBox="0 0 900 600" width="900" height="600" xmlns="http://www.w3.org/2000/svg" xmlns:xlink="http://www.w3.org/1999/xlink" version="1.1"><rect x="0" y="0" width="900" height="600" fill="#1F1F32"></rect><defs><linearGradient id="grad1_0" x1="33.3%" y1="100%" x2="100%" y2="0%"><stop offset="20%" stop-color="#1f1f32" stop-opacity="1"></stop><stop offset="80%" stop-color="#1f1f32" stop-opacity="1"></stop></linearGradient></defs><defs><linearGradient id="grad2_0" x1="0%" y1="100%" x2="66.7%" y2="0%"><stop offset="20%" stop-color="#1f1f32" stop-opacity="1"></stop><stop offset="80%" stop-color="#1f1f32" stop-opacity="1"></stop></linearGradient></defs><g transform="translate(900, 600)"><path d="M-378.6 0C-346.6 -32.8 -314.5 -65.6 -293.9 -95.5C-273.2 -125.3 -263.9 -152.3 -252.4 -183.4C-240.9 -214.5 -227.2 -249.9 -205.1 -282.3C-183.1 -314.8 -152.6 -344.5 -117 -360.1C-81.4 -375.6 -40.7 -377.1 0 -378.6L0 0Z" fill="#181828"></path></g><g transform="translate(0, 0)"><path d="M378.6 0C341.9 31 305.3 61.9 289.1 93.9C273 125.9 277.4 159 271.8 197.5C266.3 236 250.9 280.1 222.5 306.3C194.2 332.5 153 340.9 113.7 350C74.5 359.1 37.2 368.8 0 378.6L0 0Z" fill="#181828"></path></g></svg>