<svg id="visual" viewBox="0 0 900 600" width="900" height="600" xmlns="http://www.w3.org/2000/svg" xmlns:xlink="http://www.w3.org/1999/xlink" version="1.1"><path d="M0 371L18.8 377C37.7 383 75.3 395 112.8 393.7C150.3 392.3 187.7 377.7 225.2 375.2C262.7 372.7 300.3 382.3 337.8 392C375.3 401.7 412.7 411.3 450.2 411.3C487.7 411.3 525.3 401.7 562.8 401.3C600.3 401 637.7 410 675.2 406C712.7 402 750.3 385 787.8 376.5C825.3 368 862.7 368 881.3 368L900 368L900 601L881.3 601C862.7 601 825.3 601 787.8 601C750.3 601 712.7 601 675.2 601C637.7 601 600.3 601 562.8 601C525.3 601 487.7 601 450.2 601C412.7 601 375.3 601 337.8 601C300.3 601 262.7 601 225.2 601C187.7 601 150.3 601 112.8 601C75.3 601 37.7 601 18.8 601L0 601Z" fill="#0066FF" stroke-linecap="round" stroke-linejoin="miter"></path></svg>